<svg width="20" height="26" viewBox="0 0 20 26" xmlns="http://www.w3.org/2000/svg">
    <g fill="#222" fill-rule="nonzero">
        <path d="M5.27 1.176V2.39c0 .65.527 1.176 1.176 1.176h7.607c1.3 0 2.352 1.053 2.352 2.352v13.144c0 .65.527 1.176 1.177 1.176h1.242c.65 0 1.176-.526 1.176-1.176V2.352C20 1.053 18.947 0 17.648 0H6.446C5.796 0 5.27.527 5.27 1.176z"/>
        <path d="M12.915 4.727c1.299 0 2.352 1.053 2.352 2.353v16.568c0 1.299-1.053 2.352-2.352 2.352H2.352A2.352 2.352 0 0 1 0 23.648V7.08c0-1.3 1.053-2.353 2.352-2.353h10.563zm-1.293 16.395H3.108v1.34h8.514v-1.34zm0-3.243H3.108v1.34h8.514v-1.34zm-.784-9.221c-.352-.322-.946-.295-1.298.053l-1.594 1.582-3.19-.992a.212.212 0 0 0-.215.054l-.514.509c-.054.054-.054.107-.054.188.027.08.054.134.135.16l2.757 1.234-1.73 2.037-.946-.349a.26.26 0 0 0-.243.054l-.297.295c-.054.053-.054.107 0 .188 0 .053.027.134.08.16l1.136.831.838 1.126c.027.054.108.08.162.08h.027c.054 0 .108 0 .162-.053l.297-.295a.255.255 0 0 0 .054-.241l-.351-.939 2.054-1.715 1.243 2.734c.027.08.081.134.162.134.055.027.136 0 .19-.054l.513-.509a.207.207 0 0 0 .054-.214l-1.027-3.163 1.622-1.609a.748.748 0 0 0 .27-.643c-.027-.241-.108-.483-.297-.643z"/>
    </g>
</svg>
